<svg xmlns="http://www.w3.org/2000/svg" width="440" height="440" viewBox="0 0 440 440" version="1.1"><path d="M 100.658 166.750 C 95.724 182.010, 93.843 192.795, 93.272 209.100 C 92.422 233.395, 95.144 247.255, 103.836 262.888 C 109.942 273.870, 117.239 281.234, 126.334 285.593 C 132.480 288.538, 134.464 289, 140.972 288.999 C 147.217 288.999, 149.554 288.500, 154.684 286.073 C 163.399 281.950, 171.619 273.294, 177.276 262.283 C 181.372 254.309, 188 235.973, 188 232.613 C 188 230.456, 173.942 211.221, 166.526 203.232 C 158.751 194.856, 143.084 181.973, 131.500 174.431 C 123.986 169.538, 105.034 159, 103.749 159 C 103.427 159, 102.037 162.488, 100.658 166.750 M 321.500 160.696 C 319.850 161.534, 313.775 164.939, 308 168.262 C 278.476 185.250, 258.282 203.497, 244.283 225.836 L 239.686 233.172 242.404 242.796 C 249.711 268.665, 264.657 286.075, 282.079 289.013 C 290.794 290.483, 294.643 289.803, 303.307 285.261 C 315.902 278.658, 327.234 262.349, 331.976 244 C 336.600 226.107, 335.629 199.346, 329.487 175.380 C 325.143 158.431, 325.320 158.756, 321.500 160.696" stroke="none" fill="#fefefe" fill-rule="evenodd"/><path d="M 186.789 36.491 C 158.656 41.063, 134.944 50.364, 111.910 65.862 C 73.143 91.944, 46.276 132.096, 36.245 178.942 C 33.759 190.553, 33.556 193.273, 33.556 215 C 33.556 236.727, 33.759 239.447, 36.245 251.058 C 51.695 323.213, 106.666 377.521, 179.100 392.191 C 189.003 394.197, 193.455 394.500, 213 394.500 C 232.545 394.500, 236.997 394.197, 246.900 392.191 C 319.334 377.521, 374.305 323.213, 389.755 251.058 C 392.241 239.447, 392.444 236.727, 392.444 215 C 392.444 193.273, 392.241 190.553, 389.755 178.942 C 377.778 123.006, 341.628 76.771, 291 52.634 C 276.101 45.531, 264.598 41.570, 249.612 38.383 C 239.324 36.195, 234.338 35.752, 216.500 35.441 C 201.581 35.181, 192.977 35.485, 186.789 36.491 M 200.880 45.453 C 200.583 45.751, 196.326 46.479, 191.420 47.071 C 175.977 48.937, 174.523 49.183, 173.550 50.102 C 173.027 50.596, 171.142 51, 169.359 51 C 167.576 51, 165.840 51.450, 165.500 52 C 165.160 52.550, 163.784 53, 162.441 53 C 161.098 53, 160 53.450, 160 54 C 160 54.550, 158.861 55, 157.469 55 C 153.836 55, 153.377 57.482, 155.922 63.363 C 157.144 66.189, 158.977 71.037, 159.995 74.138 C 163.855 85.900, 167.869 91, 173.265 91 C 174.549 91, 176.137 91.537, 176.792 92.192 C 179.440 94.840, 203.222 89.376, 204.833 85.750 C 205.017 85.338, 205.825 85, 206.629 85 C 207.433 85, 209.206 83.885, 210.569 82.522 C 213.039 80.052, 213.047 79.987, 212.774 62.772 L 212.500 45.500 206.960 45.206 C 203.913 45.045, 201.177 45.156, 200.880 45.453 M 215.967 45.606 C 215.634 54.651, 216.020 77.516, 216.534 79.220 C 217.654 82.927, 222.993 87.072, 230.250 89.866 C 237.667 92.722, 249.296 93.948, 250.500 92 C 250.840 91.450, 252.415 91, 254 91 C 255.585 91, 257.160 90.550, 257.500 90 C 257.840 89.450, 258.923 89, 259.907 89 C 261.656 89, 262.012 88.352, 267.047 76 C 269.761 69.344, 273.129 59.709, 273.327 58.038 C 273.537 56.265, 267.527 53.114, 263.809 53.048 C 262.329 53.022, 260.840 52.550, 260.500 52 C 260.160 51.450, 258.360 51, 256.500 51 C 254.640 51, 252.877 50.610, 252.582 50.133 C 252.287 49.656, 249.898 48.948, 247.273 48.561 C 244.648 48.174, 239.800 47.460, 236.500 46.975 C 225.236 45.319, 216 44.703, 215.967 45.606 M 275.128 63.781 C 273.551 66.926, 270.562 74.494, 268.487 80.598 L 264.715 91.696 267.108 95.042 C 270.901 100.347, 279.810 109, 281.478 109 C 282.315 109, 283 109.450, 283 110 C 283 110.550, 283.873 111, 284.941 111 C 286.009 111, 287.129 111.400, 287.432 111.890 C 288.029 112.855, 292.628 113.822, 300.519 114.639 C 305.381 115.142, 305.635 115.038, 308.627 111.315 C 312.743 106.193, 313.294 104.052, 311.909 98.555 C 311.268 96.008, 311.013 93.654, 311.342 93.324 C 311.672 92.995, 313.260 94.137, 314.872 95.863 C 318.543 99.792, 319.866 99.785, 323 95.815 C 324.375 94.073, 326.063 92.084, 326.750 91.395 C 327.438 90.707, 328 89.955, 328 89.724 C 328 89.012, 324.301 85, 323.644 85 C 323.033 85, 320.050 82.709, 317.460 80.250 C 316.735 79.563, 315.867 79, 315.530 79 C 315.192 79, 313.951 78.100, 312.770 77.001 C 311.590 75.901, 309.359 74.441, 307.812 73.757 C 306.265 73.072, 305 72.172, 305 71.756 C 305 71.340, 304.325 71, 303.500 71 C 302.675 71, 302 70.660, 302 70.244 C 302 69.828, 300.538 68.852, 298.750 68.074 C 296.962 67.297, 295.275 66.390, 295 66.060 C 294.411 65.353, 282.291 59.446, 279.749 58.626 C 278.395 58.190, 277.347 59.359, 275.128 63.781 M 144 60 C 144 60.550, 143.368 61, 142.595 61 C 140.929 61, 132.647 65.170, 132.167 66.250 C 131.983 66.662, 130.971 67, 129.917 67 C 128.863 67, 128 67.450, 128 68 C 128 68.550, 127.325 69, 126.500 69 C 125.675 69, 125 69.450, 125 70 C 125 70.550, 124.519 71, 123.930 71 C 123.342 71, 120.898 72.350, 118.500 74 C 116.102 75.650, 113.851 77, 113.498 77 C 113.146 77, 112.286 77.563, 111.587 78.250 C 110.888 78.938, 108.835 80.625, 107.025 82 C 101.721 86.028, 100 87.672, 100 88.708 C 100 89.836, 108.459 99, 109.500 99 C 109.884 99, 111.459 97.650, 113 96 C 114.541 94.350, 116.046 93, 116.343 93 C 116.640 93, 116.629 96.042, 116.317 99.760 C 115.775 106.219, 115.880 106.655, 118.652 109.510 C 120.248 111.155, 122.548 113.063, 123.763 113.750 C 126.407 115.246, 132.631 115.406, 133.500 114 C 133.840 113.450, 134.978 113, 136.029 113 C 137.079 113, 139.542 112.100, 141.500 111 C 143.458 109.900, 145.492 109, 146.019 109 C 148.136 109, 157.558 99.967, 158.484 97.050 C 158.842 95.922, 159.504 95, 159.956 95 C 160.408 95, 161.058 93.502, 161.402 91.671 C 162.088 88.016, 159.904 80.113, 155.691 71 C 154.292 67.975, 152.610 64.037, 151.953 62.250 C 150.927 59.460, 150.279 59, 147.379 59 C 145.520 59, 144 59.450, 144 60 M 210.500 86.852 C 209.400 87.062, 207.306 88.081, 205.846 89.117 C 204.386 90.153, 202.473 91, 201.596 91 C 200.718 91, 200 91.450, 200 92 C 200 92.550, 198.452 93, 196.559 93 C 194.666 93, 192.840 93.450, 192.500 94 C 192.146 94.573, 186.967 95, 180.374 95 C 167.211 95, 167.828 94.216, 172.596 104.871 C 173.918 107.825, 175 110.659, 175 111.169 C 175 111.679, 175.796 113.762, 176.770 115.798 C 177.743 117.834, 179.411 122.088, 180.477 125.250 L 182.414 131 191.721 131 C 196.839 131, 201.809 130.588, 202.764 130.084 C 203.719 129.580, 206.215 128.421, 208.310 127.508 C 210.406 126.596, 212.329 125.307, 212.583 124.644 C 212.838 123.981, 212.923 115.121, 212.773 104.955 C 212.509 87.083, 212.434 86.484, 210.500 86.852 M 216.228 105.250 C 216.473 115.287, 216.983 124.175, 217.359 125 C 217.736 125.825, 219.697 127.574, 221.718 128.888 C 224.903 130.958, 226.626 131.281, 234.672 131.319 C 243.212 131.359, 244.115 131.174, 246.003 128.997 C 247.131 127.696, 248.336 125.477, 248.681 124.066 C 249.026 122.655, 249.592 121.275, 249.938 121 C 250.285 120.725, 251.660 117.125, 252.993 113 C 254.326 108.875, 256.213 103.700, 257.186 101.500 C 260.387 94.265, 260.498 94.337, 246.926 94.821 C 238.772 95.112, 234.486 94.886, 233.726 94.126 C 233.107 93.507, 231.559 93, 230.286 93 C 228.247 93, 224.427 91.427, 223 90 C 221.957 88.957, 217.981 87, 216.904 87 C 216.098 87, 215.907 92.150, 216.228 105.250 M 87.214 100.800 C 83.207 105.035, 78.707 110.297, 77.214 112.493 C 75.721 114.690, 74.050 116.997, 73.500 117.621 C 68.568 123.215, 60.757 137.443, 62.130 138.333 C 65.049 140.226, 75.711 145, 77.019 145 C 78.008 145, 79.293 143.706, 80 142 C 80.683 140.350, 81.583 139, 82 139 C 82.417 139, 83.302 137.685, 83.968 136.078 C 85.377 132.676, 92.945 120.550, 95.500 117.600 C 96.050 116.966, 97.605 114.883, 98.955 112.973 C 101.477 109.406, 101.645 109.189, 105.019 105.097 C 106.108 103.775, 107 102.350, 107 101.929 C 107 101.508, 105.235 99.326, 103.078 97.082 C 97.492 91.267, 95.876 91.646, 87.214 100.800 M 325.712 97.160 C 323.670 99.449, 322 101.857, 322 102.512 C 322 103.167, 323.238 105.018, 324.750 106.624 C 326.262 108.230, 328.849 111.560, 330.497 114.022 C 332.146 116.485, 333.721 118.725, 333.997 119 C 335.409 120.404, 339.132 126.279, 341.956 131.561 C 348.379 143.574, 349.415 144.994, 351.750 144.997 C 352.988 144.999, 354 144.550, 354 144 C 354 143.450, 354.675 143, 355.500 143 C 356.325 143, 357 142.550, 357 142 C 357 141.450, 357.900 141, 359 141 C 360.100 141, 361 140.550, 361 140 C 361 139.450, 361.675 139, 362.500 139 C 364.876 139, 364.260 135.752, 360.872 130.421 C 350.514 114.127, 346.804 109.211, 334.849 95.943 C 333.391 94.324, 331.573 93, 330.810 93 C 330.048 93, 327.753 94.872, 325.712 97.160 M 162.337 97.652 C 158.782 103.164, 147.094 113, 144.100 113 C 143.529 113, 141.458 113.900, 139.500 115 C 137.542 116.100, 134.378 117, 132.470 117 C 128.778 117, 127.812 118.925, 130.250 121.424 C 130.938 122.129, 134.425 126, 138 130.026 C 147.718 140.972, 154.886 148, 156.331 148 C 157.039 148, 158.491 147.339, 159.559 146.532 C 160.626 145.724, 162.287 145.049, 163.250 145.032 C 164.213 145.014, 165 144.550, 165 144 C 165 143.450, 165.675 143, 166.500 143 C 167.325 143, 168 142.550, 168 142 C 168 141.450, 168.495 141, 169.100 141 C 170.451 141, 176.277 135.252, 177.767 132.449 C 178.623 130.840, 178.318 128.793, 176.353 122.949 C 174.975 118.852, 173.273 114.150, 172.571 112.500 C 167.731 101.133, 166.439 98.289, 165.376 96.652 C 164.249 94.918, 164.061 94.980, 162.337 97.652 M 261.027 100.250 C 259.083 105.445, 256.826 111.262, 255.498 114.500 C 254.821 116.150, 253.419 119.975, 252.383 123 C 251.348 126.025, 250.162 128.650, 249.750 128.833 C 247.939 129.638, 249.122 134.617, 251.559 136.447 C 252.967 137.504, 255.296 139.381, 256.736 140.618 C 259.540 143.028, 266.226 146.528, 269.500 147.301 C 270.600 147.561, 272.204 148.065, 273.065 148.423 C 274.645 149.078, 276.200 147.705, 286.731 136.364 C 297.888 124.348, 301 120.806, 301 120.124 C 301 119.235, 295.002 117, 292.616 117 C 290.248 117, 278.817 111.410, 276.200 108.972 C 275.036 107.887, 273.788 107, 273.426 107 C 272.552 107, 265 98.710, 265 97.750 C 265 95.602, 262.078 97.440, 261.027 100.250 M 305.720 117.687 C 304.669 123.184, 308.230 124.929, 310.639 120.098 C 312.187 116.993, 311.355 115, 308.510 115 C 306.833 115, 306.098 115.708, 305.720 117.687 M 123 122.566 C 123 123.427, 123.510 125.085, 124.134 126.251 C 125.575 128.942, 136.464 139.442, 145.988 147.322 C 148.897 149.728, 149.707 148.727, 147.534 145.411 C 145.250 141.926, 124.949 121, 123.851 121 C 123.383 121, 123 121.705, 123 122.566 M 294.500 131.638 C 291.200 135.247, 287.262 139.501, 285.750 141.091 C 284.238 142.681, 283 144.254, 283 144.587 C 283 144.919, 282.005 146.611, 280.789 148.346 C 278.899 151.042, 278.856 151.282, 280.491 150 C 288.400 143.800, 302.761 129.575, 303.459 127.250 C 304.767 122.893, 300.656 124.907, 294.500 131.638 M 209.500 130.668 C 208.400 130.907, 206.600 131.496, 205.500 131.976 C 202.335 133.358, 197.991 134.187, 191.250 134.698 C 186.031 135.093, 185 135.473, 185 137.002 C 185 138.009, 185.338 138.983, 185.750 139.167 C 186.162 139.350, 187.467 142.200, 188.648 145.500 C 195.257 163.960, 195.522 164.482, 198.459 164.828 C 199.991 165.009, 201.729 164.671, 202.322 164.078 C 202.915 163.485, 205.020 163, 207 163 C 208.980 163, 211.140 162.460, 211.800 161.800 C 213.138 160.462, 213.572 129.911, 212.250 130.116 C 211.838 130.180, 210.600 130.428, 209.500 130.668 M 216.607 132.582 C 215.743 134.833, 215.882 160.278, 216.765 161.600 C 217.169 162.205, 219.300 162.994, 221.500 163.354 C 223.700 163.713, 226.946 164.279, 228.713 164.612 C 231.938 165.218, 235 163.487, 235 161.058 C 235 160.461, 235.406 159.191, 235.903 158.236 C 236.399 157.281, 237.391 154.475, 238.107 152 C 238.822 149.525, 240.437 145.250, 241.694 142.500 C 245.093 135.066, 245.048 135, 236.500 135 C 232.167 135, 229 134.578, 229 134 C 229 133.450, 227.227 133, 225.059 133 C 222.891 133, 220.840 132.550, 220.500 132 C 219.555 130.471, 217.287 130.810, 216.607 132.582 M 177.556 138.535 C 176.200 139.891, 174.827 141, 174.504 141 C 174.181 141, 172.950 141.900, 171.770 143 C 170.589 144.100, 169.033 145, 168.311 145 C 167.590 145, 167 145.450, 167 146 C 167 146.550, 166.325 147, 165.500 147 C 164.675 147, 164 147.450, 164 148 C 164 148.550, 163.086 149, 161.969 149 C 159.424 149, 158.365 151.507, 160.153 153.298 C 160.894 154.041, 162.625 156.102, 164 157.878 C 169.080 164.443, 180.351 175.448, 180.754 174.239 C 180.981 173.557, 181.574 173, 182.072 173 C 182.928 173, 185.614 171.027, 188.540 168.250 C 189.265 167.563, 190.339 167, 190.929 167 C 192.643 167, 192.186 163.790, 189.417 156.397 C 187.997 152.604, 185.859 146.698, 184.667 143.274 C 183.475 139.849, 181.942 136.828, 181.260 136.559 C 180.578 136.290, 178.911 137.180, 177.556 138.535 M 246.314 140.250 C 244.649 142.840, 243 146.261, 243 147.125 C 243 147.618, 242.131 149.929, 241.069 152.261 C 238.080 158.821, 235.858 166.189, 236.425 167.664 C 236.707 168.399, 237.626 169, 238.469 169 C 239.311 169, 240 169.340, 240 169.756 C 240 170.172, 241.463 171.101, 243.250 171.821 C 245.037 172.542, 247.281 173.552, 248.236 174.065 C 251.137 175.626, 252.396 175.139, 254.878 171.495 C 256.185 169.575, 260.348 164.793, 264.128 160.868 C 267.907 156.943, 271 153.226, 271 152.610 C 271 151.993, 269.538 150.891, 267.750 150.160 C 262.139 147.868, 259.543 146.540, 258.214 145.285 C 257.506 144.617, 255.594 143.282, 253.964 142.319 C 252.334 141.357, 251 140.216, 251 139.784 C 251 138.511, 247.189 138.889, 246.314 140.250 M 57.543 145.250 C 54.455 152.701, 53.856 154.319, 50.787 163.500 C 47.537 173.222, 44.087 188.601, 44.033 193.605 L 44 196.709 54.250 197.300 C 62.488 197.774, 64.716 197.608, 65.602 196.456 C 66.209 195.667, 66.985 191.754, 67.328 187.761 C 67.851 181.662, 70.687 170.204, 75.897 153.140 C 77.235 148.759, 76.460 148.011, 66.250 143.840 C 64.463 143.109, 63 142.172, 63 141.756 C 63 141.340, 62.168 141, 61.152 141 C 59.921 141, 58.716 142.418, 57.543 145.250 M 362.500 142.309 C 361.400 142.964, 360.275 143.726, 360 144.002 C 359.725 144.277, 358.150 145.159, 356.500 145.960 C 350.893 148.683, 350.910 148.627, 353.483 155.831 C 356.929 165.476, 360.743 182.298, 361.504 191.202 C 362.126 198.487, 362.320 198.974, 365.081 200.196 C 368.155 201.557, 368.948 203, 366.622 203 C 363.964 203, 362.813 206.009, 361.379 216.707 C 359.171 233.182, 358.457 236.802, 355.599 245.998 C 353.130 253.941, 353.069 254.577, 354.670 255.748 C 355.612 256.436, 357.652 257, 359.205 257 C 360.757 257, 362.809 257.395, 363.764 257.877 C 366.846 259.435, 372.574 261, 375.190 261 C 377.622 261, 377.810 260.580, 379.329 251.750 C 382.002 236.217, 383.003 226.012, 383.001 214.290 L 383 203.080 379 201.882 C 374.157 200.431, 373.865 199.236, 378.250 198.813 L 381.500 198.500 381.209 191.511 C 380.875 183.494, 378.240 172.046, 374.069 160.500 C 366.612 139.852, 366.615 139.858, 362.500 142.309 M 154 155.314 C 154 156.163, 154.569 157.452, 155.264 158.179 C 155.960 158.905, 158.097 161.524, 160.014 163.997 C 166.564 172.447, 174 179.069, 174 176.450 C 174 175.647, 170.975 169.930, 169.644 168.216 C 166.921 164.713, 159.276 157.211, 156.750 155.563 C 154.379 154.017, 154 153.983, 154 155.314 M 265.945 163.318 C 257.731 171.298, 252.144 179, 254.571 179 C 256.277 179, 257.172 178.151, 263 171 C 264.750 168.853, 267.093 166.062, 268.206 164.798 C 271.152 161.454, 273.337 158.004, 272.831 157.497 C 272.589 157.255, 269.490 159.875, 265.945 163.318 M 101.863 161.750 C 98.815 169.462, 94.019 192.304, 92.893 204.477 C 90.910 225.913, 94.094 244.620, 102.496 260.887 C 108.275 272.077, 115.900 280.585, 124.169 285.067 C 130.188 288.331, 130.996 288.500, 140.564 288.500 C 149.273 288.500, 151.293 288.167, 155.564 286.027 C 163.055 282.274, 172.797 271.896, 177.652 262.500 C 182.014 254.057, 188 237.215, 188 233.387 C 188 230.941, 179.476 217.907, 172.052 209 C 158.967 193.302, 132.065 172.681, 110.243 161.623 C 103.784 158.350, 103.204 158.359, 101.863 161.750 M 310.717 166.451 C 286.931 180.255, 272.647 191.053, 259.960 204.821 C 251.906 213.562, 240 230.721, 240 233.589 C 240 234.643, 240.843 238.430, 241.874 242.003 C 247.503 261.523, 256.719 276.242, 268 283.726 C 274.275 287.888, 279.296 289.314, 288 289.406 C 298.708 289.520, 305.708 286.146, 314.950 276.416 C 322.613 268.349, 328.250 257.975, 332.072 244.910 C 335.116 234.501, 335.866 209.831, 333.606 194.423 C 331.785 182.005, 326.025 159.813, 324.500 159.342 C 323.950 159.172, 317.747 162.371, 310.717 166.451 M 208 166 C 207.175 166.533, 205.093 166.976, 203.372 166.985 C 198.326 167.009, 197.685 168.804, 200.303 175.589 C 201.557 178.840, 203.219 183.525, 203.995 186 C 206.004 192.410, 210.027 198.373, 211.410 196.993 C 212.073 196.332, 212.626 189.849, 212.820 180.453 C 213.119 166.053, 213.017 165.001, 211.320 165.015 C 210.319 165.024, 208.825 165.467, 208 166 M 216.699 167.750 C 215.979 169.041, 215.828 192.467, 216.523 195.235 C 217.765 200.184, 219.533 197.801, 226.339 182 C 229.223 175.304, 230.844 169.756, 230.317 168.382 C 229.745 166.894, 217.495 166.325, 216.699 167.750 M 187.750 173.130 C 185.137 174.839, 183 176.811, 183 177.513 C 183 178.214, 184.238 180.172, 185.750 181.864 C 187.262 183.556, 190.525 187.251, 193 190.077 C 199.292 197.261, 201.181 199, 202.689 199 C 204.584 199, 204.344 197.232, 201.108 187.340 C 197.364 175.892, 194.780 169.997, 193.514 170.012 C 192.956 170.018, 190.363 171.421, 187.750 173.130 M 233 172.511 C 233 173.342, 232.141 175.929, 231.091 178.261 C 228.412 184.209, 223 198.728, 223 199.968 C 223 201.572, 225.752 201.185, 228.103 199.250 C 229.272 198.287, 232.090 195.534, 234.364 193.132 C 236.639 190.729, 240.412 186.813, 242.750 184.429 C 245.088 182.045, 247 179.469, 247 178.704 C 247 177.940, 244.863 176.231, 242.250 174.907 C 239.637 173.583, 237.350 172.162, 237.167 171.750 C 236.543 170.346, 233 170.993, 233 172.511 M 177.456 182.750 C 178.498 188.511, 187.744 201, 190.967 201 C 191.535 201, 192 201.398, 192 201.883 C 192 202.369, 192.787 202.993, 193.750 203.270 C 194.713 203.547, 196.287 204.097, 197.250 204.494 C 199.773 205.532, 199.418 203.975, 195.935 198.716 C 192.632 193.729, 178.928 179, 177.591 179 C 177.144 179, 177.083 180.688, 177.456 182.750 M 238.698 193.100 C 233.364 198.655, 229 203.605, 229 204.100 C 229 204.595, 230.125 205, 231.500 205 C 232.875 205, 234 204.550, 234 204 C 234 203.450, 234.639 203, 235.421 203 C 237.675 203, 245.857 194.215, 248.547 188.907 C 251.384 183.309, 251.444 183, 249.698 183 C 248.982 183, 244.032 187.545, 238.698 193.100 M 44.031 200.462 C 41.748 203.213, 43.076 235.028, 46.078 249.500 C 46.648 252.250, 47.334 255.559, 47.602 256.854 C 48.033 258.933, 48.495 259.138, 51.545 258.604 C 53.445 258.272, 56.688 257.747, 58.750 257.438 C 60.813 257.129, 63.400 256.489, 64.500 256.016 C 65.600 255.543, 67.625 254.900, 69 254.587 C 74.537 253.326, 74.552 253.217, 71.083 239.365 C 69.316 232.307, 67.380 221.350, 66.782 215.016 C 66.184 208.682, 65.306 202.995, 64.831 202.378 C 64.355 201.760, 60.487 201.029, 56.233 200.754 C 51.980 200.478, 47.785 199.950, 46.910 199.581 C 45.986 199.190, 44.781 199.559, 44.031 200.462 M 207.441 200.834 C 202.464 202.445, 199.676 205.930, 198.396 212.139 C 196.909 219.354, 197.294 220.782, 200.835 221.192 C 203.111 221.455, 203.544 222.033, 203.804 225.151 C 204.055 228.157, 204.654 229.028, 207.191 230.079 C 210.723 231.542, 220.026 230.116, 222.394 227.749 C 227.528 222.615, 229.194 210.804, 225.483 205.843 C 224.393 204.385, 222.679 202.674, 221.677 202.041 C 219.501 200.669, 210.347 199.893, 207.441 200.834 M 204.902 232.332 C 202.550 234.055, 200.331 238.832, 198.037 247.108 C 195.385 256.677, 195.408 260.149, 198.134 261.852 C 200.708 263.459, 201.667 262.401, 202.530 257 C 202.837 255.075, 203.487 251.925, 203.974 250 C 205.389 244.412, 207.362 232.028, 206.910 231.576 C 206.683 231.349, 205.779 231.689, 204.902 232.332 M 219.444 233.091 C 219.102 233.643, 219.275 236.211, 219.828 238.797 C 220.380 241.384, 221.341 246.875, 221.962 251 C 223.612 261.950, 223.906 263, 225.320 263 C 227.974 263, 232.077 260.424, 232.591 258.434 C 233.282 255.759, 229.620 245.224, 225.629 238.407 C 222.426 232.934, 220.541 231.315, 219.444 233.091 M 209.594 238.792 C 207.913 242.519, 206.525 249.373, 205.348 259.750 L 204.752 265 212.317 265 C 216.478 265, 220.123 264.611, 220.417 264.135 C 221.131 262.979, 218.014 245.347, 215.840 238.250 C 214.465 233.758, 211.758 233.993, 209.594 238.792 M 66.530 257.951 C 66.174 258.528, 64.810 259, 63.500 259 C 62.190 259, 60.840 259.450, 60.500 260 C 60.160 260.550, 58.810 261, 57.500 261 C 56.190 261, 54.840 261.450, 54.500 262 C 54.160 262.550, 52.956 263, 51.824 263 C 49.602 263, 49.603 263.012, 52.107 272 C 53.372 276.537, 66.104 303.077, 68.084 305.302 C 68.671 305.961, 70.141 308.300, 71.352 310.500 C 73.492 314.387, 77.444 316.374, 78.887 314.289 C 79.224 313.802, 81.075 312.322, 83 310.999 C 84.925 309.677, 87.175 307.877, 88 307 C 88.825 306.123, 91.075 304.314, 93 302.980 C 94.925 301.646, 97.372 299.755, 98.439 298.777 C 99.505 297.800, 100.694 297, 101.082 297 C 103.071 297, 102.883 293.445, 100.790 291.487 C 99.530 290.309, 96.925 287.393, 95 285.008 C 93.075 282.623, 91.025 280.182, 90.444 279.585 C 89.864 278.988, 88.289 276.478, 86.944 274.006 C 85.600 271.534, 84.125 269.059, 83.666 268.506 C 83.207 267.953, 81.632 265.250, 80.166 262.500 C 77.544 257.583, 77.414 257.495, 72.339 257.201 C 69.482 257.035, 66.889 257.370, 66.530 257.951 M 349.032 261.922 C 347.934 264.572, 342.251 274.045, 340.285 276.500 C 339.845 277.050, 338.622 278.850, 337.568 280.500 C 336.513 282.150, 332.764 286.395, 329.235 289.933 L 322.819 296.366 326.159 299.300 C 331.968 304.401, 343.720 313, 344.882 313 C 345.497 313, 346 313.450, 346 314 C 346 315.423, 349.912 315.240, 351.346 313.750 C 352.007 313.063, 353.988 310.250, 355.748 307.500 C 357.508 304.750, 359.406 301.960, 359.966 301.300 C 361.763 299.184, 373 275.824, 373 274.204 C 373 273.345, 373.530 271.177, 374.177 269.387 C 375.642 265.335, 374.092 263, 369.937 263 C 368.386 263, 366.840 262.550, 366.500 262 C 366.160 261.450, 364.360 261, 362.500 261 C 360.640 261, 358.840 260.550, 358.500 260 C 358.160 259.450, 356.163 259, 354.062 259 C 350.784 259, 350.071 259.414, 349.032 261.922 M 228.043 265.960 C 225.378 268.449, 224.885 269.527, 225.387 271.759 C 225.726 273.266, 226.431 276.750, 226.955 279.500 C 228.926 289.861, 230.887 298.221, 231.487 298.821 C 231.829 299.162, 232.422 299.005, 232.804 298.471 C 233.674 297.258, 238.914 294.063, 241.250 293.322 C 242.213 293.016, 243 292.369, 243 291.883 C 243 291.398, 243.810 291, 244.800 291 C 248.494 291, 248.886 289.050, 246.176 284.167 C 244.752 281.600, 243.117 279.017, 242.543 278.426 C 241.969 277.835, 240.437 274.910, 239.137 271.926 C 237.837 268.942, 236.441 265.825, 236.035 265 C 234.741 262.373, 231.461 262.767, 228.043 265.960 M 191.068 266.904 C 189.931 268.502, 189 270.429, 189 271.188 C 189 271.947, 187.424 275.014, 185.498 278.004 C 183.571 280.994, 181.741 284.241, 181.430 285.220 C 181.119 286.199, 180.446 287, 179.933 287 C 179.420 287, 179 287.642, 179 288.426 C 179 289.211, 181.588 291.107, 184.750 292.640 C 187.912 294.172, 190.650 295.781, 190.833 296.213 C 191.017 296.646, 191.968 297, 192.947 297 C 194.338 297, 194.985 295.634, 195.907 290.750 C 196.557 287.313, 197.743 281.511, 198.544 277.857 C 200.662 268.192, 200.485 266.135, 197.435 264.975 C 193.743 263.572, 193.358 263.688, 191.068 266.904 M 206 268.264 C 204.625 268.885, 203.418 269.424, 203.317 269.462 C 203.082 269.552, 199.303 289.242, 198.501 294.563 L 197.888 298.625 212.444 298.625 C 228.908 298.625, 227.838 299.324, 225.930 289.826 C 222.823 274.352, 221.627 269.383, 220.737 268.250 C 219.513 266.691, 209.462 266.701, 206 268.264 M 172.884 295.282 C 167.887 299.519, 165.975 301, 165.500 301 C 164.157 301, 156.104 308.673, 153.382 312.547 C 150.418 316.766, 147 323.641, 147 325.384 C 147 326.501, 148.838 326.965, 154.750 327.342 C 164.497 327.963, 170 328.962, 170 330.109 C 170 330.599, 170.900 331, 172 331 C 173.100 331, 174 331.450, 174 332 C 174 332.550, 174.590 333, 175.311 333 C 176.033 333, 177.589 333.900, 178.770 335 C 179.950 336.100, 181.220 337, 181.591 337 C 181.962 337, 183.131 337.998, 184.189 339.218 C 185.808 341.085, 186.260 341.203, 187.042 339.968 C 187.553 339.161, 188.212 336.925, 188.508 335 C 188.803 333.075, 189.516 328.350, 190.092 324.500 C 190.668 320.650, 191.536 315.925, 192.020 314 C 193.792 306.955, 194.075 301.930, 192.770 300.693 C 192.072 300.030, 189.250 298.429, 186.500 297.135 C 183.750 295.840, 180.719 294.380, 179.764 293.891 C 177.161 292.556, 175.766 292.838, 172.884 295.282 M 245 294 C 245 294.550, 244.543 295, 243.985 295 C 241.915 295, 232 302.339, 232 303.870 C 232 305.856, 236.847 331.017, 238.334 336.750 C 239.598 341.622, 240.202 341.859, 243.420 338.750 C 247.623 334.689, 250 333, 251.511 333 C 252.330 333, 253 332.660, 253 332.244 C 253 330.482, 270.747 325, 276.449 325 C 278.267 325, 278.974 324.586, 278.584 323.750 C 278.263 323.063, 277.724 321.712, 277.384 320.750 C 277.045 319.788, 276.424 319, 276.005 319 C 275.586 319, 274.683 317.650, 274 316 C 273.317 314.350, 272.392 313, 271.946 313 C 271.500 313, 270.826 312.026, 270.448 310.836 C 269.676 308.405, 260.169 298.561, 255.346 295.199 C 252.130 292.957, 245 292.131, 245 294 M 103 300 C 103 300.550, 102.410 301, 101.689 301 C 100.967 301, 99.411 301.900, 98.230 303 C 97.050 304.100, 95.808 305, 95.470 305 C 95.133 305, 94.286 305.563, 93.587 306.250 C 92.888 306.938, 90.835 308.625, 89.025 310 C 87.215 311.375, 84.556 313.512, 83.117 314.749 C 81.677 315.986, 80.162 316.998, 79.750 316.999 C 77.697 317.002, 79.525 321.069, 83.764 325.929 C 92.216 335.619, 98.767 341.846, 106.980 348 C 108.815 349.375, 110.888 351.063, 111.587 351.750 C 112.286 352.438, 113.174 353, 113.561 353 C 113.949 353, 114.993 353.819, 115.883 354.819 C 119.789 359.213, 122.789 358.177, 126.405 351.184 C 128.052 347.999, 132.258 341.364, 133.851 339.437 C 134.334 338.852, 135.311 337.287, 136.023 335.958 C 136.734 334.629, 137.957 332.900, 138.740 332.117 C 139.732 331.125, 139.963 329.616, 139.501 327.151 C 138.259 320.531, 131.038 309, 128.134 309 C 127.510 309, 127 308.634, 127 308.187 C 127 307.739, 125.425 306.755, 123.500 306 C 121.575 305.245, 120 304.261, 120 303.813 C 120 303.366, 119.127 303, 118.059 303 C 116.991 303, 115.840 302.550, 115.500 302 C 115.160 301.450, 114.009 301, 112.941 301 C 111.873 301, 111 300.550, 111 300 C 111 299.450, 109.200 299, 107 299 C 104.800 299, 103 299.450, 103 300 M 316.250 300.360 C 315.012 300.973, 314 301.818, 314 302.237 C 314 302.657, 313.339 303, 312.530 303 C 311.722 303, 309.458 303.900, 307.500 305 C 305.542 306.100, 303.278 307, 302.470 307 C 301.661 307, 301 307.450, 301 308 C 301 308.550, 300.244 309, 299.321 309 C 295.884 309, 288.112 319.987, 286.429 327.227 C 285.938 329.338, 286.475 330.812, 288.811 333.761 C 290.470 335.856, 292.624 339.241, 293.599 341.285 C 294.573 343.328, 295.669 345, 296.033 345 C 296.398 345, 297.508 346.800, 298.500 349 C 299.492 351.200, 300.655 353, 301.084 353 C 301.514 353, 302.151 353.900, 302.500 355 C 302.860 356.134, 304.013 357, 305.163 357 C 307.423 357, 313.530 353.006, 318.540 348.250 C 319.265 347.563, 320.118 347, 320.437 347 C 322.067 347, 343.712 325.517, 346.291 321.340 C 347.280 319.738, 346.083 317, 344.393 317 C 343.627 317, 343 316.647, 343 316.216 C 343 315.784, 341.666 314.643, 340.036 313.681 C 338.406 312.718, 336.494 311.368, 335.786 310.682 C 335.079 309.996, 332.925 308.336, 331 306.994 C 329.075 305.652, 326.628 303.755, 325.561 302.777 C 324.495 301.800, 323.033 301, 322.311 301 C 321.590 301, 321 300.550, 321 300 C 321 298.761, 319.203 298.897, 316.250 300.360 M 203.500 302 C 203.160 302.550, 202.002 303, 200.926 303 C 198.535 303, 195.009 308.462, 195.004 312.174 C 195.002 313.644, 194.562 317.019, 194.027 319.674 C 192.311 328.188, 190 341.010, 190 342.020 C 190 342.559, 190.675 343, 191.500 343 C 192.325 343, 193 342.601, 193 342.113 C 193 341.626, 194.463 340.931, 196.250 340.569 C 210.442 337.695, 222.618 337.902, 229.438 341.134 C 233.083 342.861, 236 343.523, 236 342.622 C 236 342.414, 234.878 336.677, 233.507 329.872 C 228.654 305.782, 227.763 303, 224.899 303 C 223.919 303, 222.840 302.550, 222.500 302 C 222.160 301.450, 217.885 301, 213 301 C 208.115 301, 203.840 301.450, 203.500 302 M 136.399 310.403 C 135.835 311.873, 138.680 318.082, 141.485 321.500 C 142.660 322.933, 143.275 323.140, 143.652 322.232 C 143.942 321.535, 144.813 320.329, 145.589 319.554 C 146.365 318.778, 147 317.436, 147 316.571 C 147 315.707, 147.378 315, 147.839 315 C 148.566 315, 151 310.729, 151 309.453 C 151 309.204, 147.836 309, 143.969 309 C 138.857 309, 136.790 309.383, 136.399 310.403 M 274.043 309.750 C 274.067 310.163, 275.189 312.300, 276.537 314.500 C 277.885 316.700, 279.512 319.512, 280.154 320.750 C 282.098 324.498, 284.369 323.438, 287.330 317.399 C 290.932 310.056, 290.121 309, 280.878 309 C 277.095 309, 274.020 309.337, 274.043 309.750 M 142.971 331.123 C 142.162 332.290, 140.996 333.774, 140.380 334.421 C 139.763 335.068, 138.521 337.026, 137.618 338.771 C 136.109 341.690, 132.091 348.102, 130.264 350.506 C 129.844 351.059, 128.458 353.423, 127.183 355.760 C 125.275 359.260, 125.099 360.232, 126.183 361.269 C 127.423 362.456, 143.153 370.364, 147.500 371.986 C 148.600 372.397, 150.625 373.180, 152 373.728 C 156.526 375.529, 161.614 377, 163.321 377 C 164.244 377, 165 377.450, 165 378 C 165 378.550, 166.323 379, 167.941 379 C 169.559 379, 171.160 379.450, 171.500 380 C 171.840 380.550, 174.116 381, 176.559 381 L 181 381 181 376.943 C 181 374.711, 181.413 370.999, 181.918 368.693 C 183.165 362.996, 184.818 354.290, 185.509 349.783 C 186.030 346.383, 185.695 345.688, 181.587 341.638 C 179.116 339.202, 175.724 336.603, 174.048 335.861 C 172.371 335.119, 171 334.172, 171 333.756 C 171 333.340, 170.190 333, 169.200 333 C 168.210 333, 166.973 332.613, 166.450 332.141 C 165.340 331.138, 152.632 329, 147.778 329 C 145.506 329, 143.972 329.677, 142.971 331.123 M 265.500 330 C 265.160 330.550, 263.826 331, 262.535 331 C 258.924 331, 252.245 334.969, 246.345 340.621 C 240.258 346.453, 239.968 347.857, 242.500 359.250 C 247.716 382.723, 247.083 381, 250.500 381 C 251.810 381, 253.160 380.550, 253.500 380 C 253.840 379.450, 255.415 379, 257 379 C 258.585 379, 260.160 378.550, 260.500 378 C 260.840 377.450, 262.104 376.993, 263.309 376.985 C 265.701 376.969, 272.551 374.783, 273.648 373.685 C 274.025 373.308, 275.158 373, 276.167 373 C 277.175 373, 278 372.550, 278 372 C 278 371.450, 278.681 371, 279.514 371 C 280.346 371, 281.809 370.603, 282.764 370.117 C 284.445 369.261, 285.876 368.649, 292.750 365.840 C 294.538 365.109, 296 364.172, 296 363.756 C 296 363.340, 296.620 363, 297.378 363 C 298.135 363, 299.332 362.305, 300.037 361.456 C 301.100 360.175, 300.920 359.193, 298.984 355.706 C 297.700 353.393, 296.357 351.275, 296 351 C 295.643 350.725, 294.259 348.475, 292.925 346 C 291.591 343.525, 289.938 340.905, 289.250 340.179 C 288.563 339.452, 288 338.508, 288 338.082 C 288 337.655, 287.114 336.225, 286.030 334.903 C 281.328 329.165, 280.973 329, 273.384 329 C 269.388 329, 265.840 329.450, 265.500 330 M 202 342.188 C 200.625 342.766, 198.375 343.689, 197 344.237 C 190.545 346.813, 189.505 347.825, 188.340 352.674 C 186.788 359.137, 183 379.379, 183 381.214 C 183 383.763, 197.383 385.261, 216 384.653 C 235.775 384.008, 242.697 383.232, 243.327 381.590 C 243.586 380.915, 243.365 378.369, 242.836 375.932 C 242.307 373.494, 241.481 369.475, 240.999 367 C 237.452 348.781, 237.272 348.409, 230.371 345.110 C 227.692 343.829, 224.719 342.380, 223.764 341.891 C 221.382 340.669, 205.079 340.892, 202 342.188" stroke="none" fill="#080404" fill-rule="evenodd"/><path d="M 200.880 45.453 C 200.583 45.751, 196.326 46.479, 191.420 47.071 C 175.977 48.937, 174.523 49.183, 173.550 50.102 C 173.027 50.596, 171.142 51, 169.359 51 C 167.576 51, 165.840 51.450, 165.500 52 C 165.160 52.550, 163.784 53, 162.441 53 C 161.098 53, 160 53.450, 160 54 C 160 54.550, 158.861 55, 157.469 55 C 153.836 55, 153.377 57.482, 155.922 63.363 C 157.144 66.189, 158.977 71.037, 159.995 74.138 C 163.855 85.900, 167.869 91, 173.265 91 C 174.549 91, 176.137 91.537, 176.792 92.192 C 179.440 94.840, 203.222 89.376, 204.833 85.750 C 205.017 85.338, 205.825 85, 206.629 85 C 207.433 85, 209.206 83.885, 210.569 82.522 C 213.039 80.052, 213.047 79.987, 212.774 62.772 L 212.500 45.500 206.960 45.206 C 203.913 45.045, 201.177 45.156, 200.880 45.453 M 215.967 45.606 C 215.634 54.651, 216.020 77.516, 216.534 79.220 C 217.654 82.927, 222.993 87.072, 230.250 89.866 C 237.667 92.722, 249.296 93.948, 250.500 92 C 250.840 91.450, 252.415 91, 254 91 C 255.585 91, 257.160 90.550, 257.500 90 C 257.840 89.450, 258.923 89, 259.907 89 C 261.656 89, 262.012 88.352, 267.047 76 C 269.761 69.344, 273.129 59.709, 273.327 58.038 C 273.537 56.265, 267.527 53.114, 263.809 53.048 C 262.329 53.022, 260.840 52.550, 260.500 52 C 260.160 51.450, 258.360 51, 256.500 51 C 254.640 51, 252.877 50.610, 252.582 50.133 C 252.287 49.656, 249.898 48.948, 247.273 48.561 C 244.648 48.174, 239.800 47.460, 236.500 46.975 C 225.236 45.319, 216 44.703, 215.967 45.606 M 275.128 63.781 C 273.551 66.926, 270.562 74.494, 268.487 80.598 L 264.715 91.696 267.108 95.042 C 270.901 100.347, 279.810 109, 281.478 109 C 282.315 109, 283 109.450, 283 110 C 283 110.550, 283.873 111, 284.941 111 C 286.009 111, 287.129 111.400, 287.432 111.890 C 288.029 112.855, 292.628 113.822, 300.519 114.639 C 305.381 115.142, 305.635 115.038, 308.627 111.315 C 312.743 106.193, 313.294 104.052, 311.909 98.555 C 311.268 96.008, 311.013 93.654, 311.342 93.324 C 311.672 92.995, 313.260 94.137, 314.872 95.863 C 318.543 99.792, 319.866 99.785, 323 95.815 C 324.375 94.073, 326.063 92.084, 326.750 91.395 C 327.438 90.707, 328 89.955, 328 89.724 C 328 89.012, 324.301 85, 323.644 85 C 323.033 85, 320.050 82.709, 317.460 80.250 C 316.735 79.563, 315.867 79, 315.530 79 C 315.192 79, 313.951 78.100, 312.770 77.001 C 311.590 75.901, 309.359 74.441, 307.812 73.757 C 306.265 73.072, 305 72.172, 305 71.756 C 305 71.340, 304.325 71, 303.500 71 C 302.675 71, 302 70.660, 302 70.244 C 302 69.828, 300.538 68.852, 298.750 68.074 C 296.962 67.297, 295.275 66.390, 295 66.060 C 294.411 65.353, 282.291 59.446, 279.749 58.626 C 278.395 58.190, 277.347 59.359, 275.128 63.781 M 144 60 C 144 60.550, 143.368 61, 142.595 61 C 140.929 61, 132.647 65.170, 132.167 66.250 C 131.983 66.662, 130.971 67, 129.917 67 C 128.863 67, 128 67.450, 128 68 C 128 68.550, 127.325 69, 126.500 69 C 125.675 69, 125 69.450, 125 70 C 125 70.550, 124.519 71, 123.930 71 C 123.342 71, 120.898 72.350, 118.500 74 C 116.102 75.650, 113.851 77, 113.498 77 C 113.146 77, 112.286 77.563, 111.587 78.250 C 110.888 78.938, 108.835 80.625, 107.025 82 C 101.721 86.028, 100 87.672, 100 88.708 C 100 89.836, 108.459 99, 109.500 99 C 109.884 99, 111.459 97.650, 113 96 C 114.541 94.350, 116.046 93, 116.343 93 C 116.640 93, 116.629 96.042, 116.317 99.760 C 115.775 106.219, 115.880 106.655, 118.652 109.510 C 120.248 111.155, 122.548 113.063, 123.763 113.750 C 126.407 115.246, 132.631 115.406, 133.500 114 C 133.840 113.450, 134.978 113, 136.029 113 C 137.079 113, 139.542 112.100, 141.500 111 C 143.458 109.900, 145.492 109, 146.019 109 C 148.136 109, 157.558 99.967, 158.484 97.050 C 158.842 95.922, 159.504 95, 159.956 95 C 160.408 95, 161.058 93.502, 161.402 91.671 C 162.088 88.016, 159.904 80.113, 155.691 71 C 154.292 67.975, 152.610 64.037, 151.953 62.250 C 150.927 59.460, 150.279 59, 147.379 59 C 145.520 59, 144 59.450, 144 60 M 210.500 86.852 C 209.400 87.062, 207.306 88.081, 205.846 89.117 C 204.386 90.153, 202.473 91, 201.596 91 C 200.718 91, 200 91.450, 200 92 C 200 92.550, 198.452 93, 196.559 93 C 194.666 93, 192.840 93.450, 192.500 94 C 192.146 94.573, 186.967 95, 180.374 95 C 167.211 95, 167.828 94.216, 172.596 104.871 C 173.918 107.825, 175 110.659, 175 111.169 C 175 111.679, 175.796 113.762, 176.770 115.798 C 177.743 117.834, 179.411 122.088, 180.477 125.250 L 182.414 131 191.721 131 C 196.839 131, 201.809 130.588, 202.764 130.084 C 203.719 129.580, 206.215 128.421, 208.310 127.508 C 210.406 126.596, 212.329 125.307, 212.583 124.644 C 212.838 123.981, 212.923 115.121, 212.773 104.955 C 212.509 87.083, 212.434 86.484, 210.500 86.852 M 216.228 105.250 C 216.473 115.287, 216.983 124.175, 217.359 125 C 217.736 125.825, 219.697 127.574, 221.718 128.888 C 224.903 130.958, 226.626 131.281, 234.672 131.319 C 243.212 131.359, 244.115 131.174, 246.003 128.997 C 247.131 127.696, 248.336 125.477, 248.681 124.066 C 249.026 122.655, 249.592 121.275, 249.938 121 C 250.285 120.725, 251.660 117.125, 252.993 113 C 254.326 108.875, 256.213 103.700, 257.186 101.500 C 260.387 94.265, 260.498 94.337, 246.926 94.821 C 238.772 95.112, 234.486 94.886, 233.726 94.126 C 233.107 93.507, 231.559 93, 230.286 93 C 228.247 93, 224.427 91.427, 223 90 C 221.957 88.957, 217.981 87, 216.904 87 C 216.098 87, 215.907 92.150, 216.228 105.250 M 87.214 100.800 C 83.207 105.035, 78.707 110.297, 77.214 112.493 C 75.721 114.690, 74.050 116.997, 73.500 117.621 C 68.568 123.215, 60.757 137.443, 62.130 138.333 C 65.049 140.226, 75.711 145, 77.019 145 C 78.008 145, 79.293 143.706, 80 142 C 80.683 140.350, 81.583 139, 82 139 C 82.417 139, 83.302 137.685, 83.968 136.078 C 85.377 132.676, 92.945 120.550, 95.500 117.600 C 96.050 116.966, 97.605 114.883, 98.955 112.973 C 101.477 109.406, 101.645 109.189, 105.019 105.097 C 106.108 103.775, 107 102.350, 107 101.929 C 107 101.508, 105.235 99.326, 103.078 97.082 C 97.492 91.267, 95.876 91.646, 87.214 100.800 M 325.712 97.160 C 323.670 99.449, 322 101.857, 322 102.512 C 322 103.167, 323.238 105.018, 324.750 106.624 C 326.262 108.230, 328.849 111.560, 330.497 114.022 C 332.146 116.485, 333.721 118.725, 333.997 119 C 335.409 120.404, 339.132 126.279, 341.956 131.561 C 348.379 143.574, 349.415 144.994, 351.750 144.997 C 352.988 144.999, 354 144.550, 354 144 C 354 143.450, 354.675 143, 355.500 143 C 356.325 143, 357 142.550, 357 142 C 357 141.450, 357.900 141, 359 141 C 360.100 141, 361 140.550, 361 140 C 361 139.450, 361.675 139, 362.500 139 C 364.876 139, 364.260 135.752, 360.872 130.421 C 350.514 114.127, 346.804 109.211, 334.849 95.943 C 333.391 94.324, 331.573 93, 330.810 93 C 330.048 93, 327.753 94.872, 325.712 97.160 M 162.337 97.652 C 158.782 103.164, 147.094 113, 144.100 113 C 143.529 113, 141.458 113.900, 139.500 115 C 137.542 116.100, 134.378 117, 132.470 117 C 128.778 117, 127.812 118.925, 130.250 121.424 C 130.938 122.129, 134.425 126, 138 130.026 C 147.718 140.972, 154.886 148, 156.331 148 C 157.039 148, 158.491 147.339, 159.559 146.532 C 160.626 145.724, 162.287 145.049, 163.250 145.032 C 164.213 145.014, 165 144.550, 165 144 C 165 143.450, 165.675 143, 166.500 143 C 167.325 143, 168 142.550, 168 142 C 168 141.450, 168.495 141, 169.100 141 C 170.451 141, 176.277 135.252, 177.767 132.449 C 178.623 130.840, 178.318 128.793, 176.353 122.949 C 174.975 118.852, 173.273 114.150, 172.571 112.500 C 167.731 101.133, 166.439 98.289, 165.376 96.652 C 164.249 94.918, 164.061 94.980, 162.337 97.652 M 261.027 100.250 C 259.083 105.445, 256.826 111.262, 255.498 114.500 C 254.821 116.150, 253.419 119.975, 252.383 123 C 251.348 126.025, 250.162 128.650, 249.750 128.833 C 247.939 129.638, 249.122 134.617, 251.559 136.447 C 252.967 137.504, 255.296 139.381, 256.736 140.618 C 259.540 143.028, 266.226 146.528, 269.500 147.301 C 270.600 147.561, 272.204 148.065, 273.065 148.423 C 274.645 149.078, 276.200 147.705, 286.731 136.364 C 297.888 124.348, 301 120.806, 301 120.124 C 301 119.235, 295.002 117, 292.616 117 C 290.248 117, 278.817 111.410, 276.200 108.972 C 275.036 107.887, 273.788 107, 273.426 107 C 272.552 107, 265 98.710, 265 97.750 C 265 95.602, 262.078 97.440, 261.027 100.250 M 305.720 117.687 C 304.669 123.184, 308.230 124.929, 310.639 120.098 C 312.187 116.993, 311.355 115, 308.510 115 C 306.833 115, 306.098 115.708, 305.720 117.687 M 123 122.566 C 123 123.427, 123.510 125.085, 124.134 126.251 C 125.575 128.942, 136.464 139.442, 145.988 147.322 C 148.897 149.728, 149.707 148.727, 147.534 145.411 C 145.250 141.926, 124.949 121, 123.851 121 C 123.383 121, 123 121.705, 123 122.566 M 294.500 131.638 C 291.200 135.247, 287.262 139.501, 285.750 141.091 C 284.238 142.681, 283 144.254, 283 144.587 C 283 144.919, 282.005 146.611, 280.789 148.346 C 278.899 151.042, 278.856 151.282, 280.491 150 C 288.400 143.800, 302.761 129.575, 303.459 127.250 C 304.767 122.893, 300.656 124.907, 294.500 131.638 M 209.500 130.668 C 208.400 130.907, 206.600 131.496, 205.500 131.976 C 202.335 133.358, 197.991 134.187, 191.250 134.698 C 186.031 135.093, 185 135.473, 185 137.002 C 185 138.009, 185.338 138.983, 185.750 139.167 C 186.162 139.350, 187.467 142.200, 188.648 145.500 C 195.257 163.960, 195.522 164.482, 198.459 164.828 C 199.991 165.009, 201.729 164.671, 202.322 164.078 C 202.915 163.485, 205.020 163, 207 163 C 208.980 163, 211.140 162.460, 211.800 161.800 C 213.138 160.462, 213.572 129.911, 212.250 130.116 C 211.838 130.180, 210.600 130.428, 209.500 130.668 M 216.607 132.582 C 215.743 134.833, 215.882 160.278, 216.765 161.600 C 217.169 162.205, 219.300 162.994, 221.500 163.354 C 223.700 163.713, 226.946 164.279, 228.713 164.612 C 231.938 165.218, 235 163.487, 235 161.058 C 235 160.461, 235.406 159.191, 235.903 158.236 C 236.399 157.281, 237.391 154.475, 238.107 152 C 238.822 149.525, 240.437 145.250, 241.694 142.500 C 245.093 135.066, 245.048 135, 236.500 135 C 232.167 135, 229 134.578, 229 134 C 229 133.450, 227.227 133, 225.059 133 C 222.891 133, 220.840 132.550, 220.500 132 C 219.555 130.471, 217.287 130.810, 216.607 132.582 M 177.556 138.535 C 176.200 139.891, 174.827 141, 174.504 141 C 174.181 141, 172.950 141.900, 171.770 143 C 170.589 144.100, 169.033 145, 168.311 145 C 167.590 145, 167 145.450, 167 146 C 167 146.550, 166.325 147, 165.500 147 C 164.675 147, 164 147.450, 164 148 C 164 148.550, 163.086 149, 161.969 149 C 159.424 149, 158.365 151.507, 160.153 153.298 C 160.894 154.041, 162.625 156.102, 164 157.878 C 169.080 164.443, 180.351 175.448, 180.754 174.239 C 180.981 173.557, 181.574 173, 182.072 173 C 182.928 173, 185.614 171.027, 188.540 168.250 C 189.265 167.563, 190.339 167, 190.929 167 C 192.643 167, 192.186 163.790, 189.417 156.397 C 187.997 152.604, 185.859 146.698, 184.667 143.274 C 183.475 139.849, 181.942 136.828, 181.260 136.559 C 180.578 136.290, 178.911 137.180, 177.556 138.535 M 246.314 140.250 C 244.649 142.840, 243 146.261, 243 147.125 C 243 147.618, 242.131 149.929, 241.069 152.261 C 238.080 158.821, 235.858 166.189, 236.425 167.664 C 236.707 168.399, 237.626 169, 238.469 169 C 239.311 169, 240 169.340, 240 169.756 C 240 170.172, 241.463 171.101, 243.250 171.821 C 245.037 172.542, 247.281 173.552, 248.236 174.065 C 251.137 175.626, 252.396 175.139, 254.878 171.495 C 256.185 169.575, 260.348 164.793, 264.128 160.868 C 267.907 156.943, 271 153.226, 271 152.610 C 271 151.993, 269.538 150.891, 267.750 150.160 C 262.139 147.868, 259.543 146.540, 258.214 145.285 C 257.506 144.617, 255.594 143.282, 253.964 142.319 C 252.334 141.357, 251 140.216, 251 139.784 C 251 138.511, 247.189 138.889, 246.314 140.250 M 57.543 145.250 C 54.455 152.701, 53.856 154.319, 50.787 163.500 C 47.537 173.222, 44.087 188.601, 44.033 193.605 L 44 196.709 54.250 197.300 C 62.488 197.774, 64.716 197.608, 65.602 196.456 C 66.209 195.667, 66.985 191.754, 67.328 187.761 C 67.851 181.662, 70.687 170.204, 75.897 153.140 C 77.235 148.759, 76.460 148.011, 66.250 143.840 C 64.463 143.109, 63 142.172, 63 141.756 C 63 141.340, 62.168 141, 61.152 141 C 59.921 141, 58.716 142.418, 57.543 145.250 M 362.500 142.309 C 361.400 142.964, 360.275 143.726, 360 144.002 C 359.725 144.277, 358.150 145.159, 356.500 145.960 C 350.893 148.683, 350.910 148.627, 353.483 155.831 C 356.929 165.476, 360.743 182.298, 361.504 191.202 C 362.126 198.487, 362.320 198.974, 365.081 200.196 C 368.155 201.557, 368.948 203, 366.622 203 C 363.964 203, 362.813 206.009, 361.379 216.707 C 359.171 233.182, 358.457 236.802, 355.599 245.998 C 353.130 253.941, 353.069 254.577, 354.670 255.748 C 355.612 256.436, 357.652 257, 359.205 257 C 360.757 257, 362.809 257.395, 363.764 257.877 C 366.846 259.435, 372.574 261, 375.190 261 C 377.622 261, 377.810 260.580, 379.329 251.750 C 382.002 236.217, 383.003 226.012, 383.001 214.290 L 383 203.080 379 201.882 C 374.157 200.431, 373.865 199.236, 378.250 198.813 L 381.500 198.500 381.209 191.511 C 380.875 183.494, 378.240 172.046, 374.069 160.500 C 366.612 139.852, 366.615 139.858, 362.500 142.309 M 154 155.314 C 154 156.163, 154.569 157.452, 155.264 158.179 C 155.960 158.905, 158.097 161.524, 160.014 163.997 C 166.564 172.447, 174 179.069, 174 176.450 C 174 175.647, 170.975 169.930, 169.644 168.216 C 166.921 164.713, 159.276 157.211, 156.750 155.563 C 154.379 154.017, 154 153.983, 154 155.314 M 265.945 163.318 C 257.731 171.298, 252.144 179, 254.571 179 C 256.277 179, 257.172 178.151, 263 171 C 264.750 168.853, 267.093 166.062, 268.206 164.798 C 271.152 161.454, 273.337 158.004, 272.831 157.497 C 272.589 157.255, 269.490 159.875, 265.945 163.318 M 208 166 C 207.175 166.533, 205.093 166.976, 203.372 166.985 C 198.326 167.009, 197.685 168.804, 200.303 175.589 C 201.557 178.840, 203.219 183.525, 203.995 186 C 206.004 192.410, 210.027 198.373, 211.410 196.993 C 212.073 196.332, 212.626 189.849, 212.820 180.453 C 213.119 166.053, 213.017 165.001, 211.320 165.015 C 210.319 165.024, 208.825 165.467, 208 166 M 216.699 167.750 C 215.979 169.041, 215.828 192.467, 216.523 195.235 C 217.765 200.184, 219.533 197.801, 226.339 182 C 229.223 175.304, 230.844 169.756, 230.317 168.382 C 229.745 166.894, 217.495 166.325, 216.699 167.750 M 187.750 173.130 C 185.137 174.839, 183 176.811, 183 177.513 C 183 178.214, 184.238 180.172, 185.750 181.864 C 187.262 183.556, 190.525 187.251, 193 190.077 C 199.292 197.261, 201.181 199, 202.689 199 C 204.584 199, 204.344 197.232, 201.108 187.340 C 197.364 175.892, 194.780 169.997, 193.514 170.012 C 192.956 170.018, 190.363 171.421, 187.750 173.130 M 233 172.511 C 233 173.342, 232.141 175.929, 231.091 178.261 C 228.412 184.209, 223 198.728, 223 199.968 C 223 201.572, 225.752 201.185, 228.103 199.250 C 229.272 198.287, 232.090 195.534, 234.364 193.132 C 236.639 190.729, 240.412 186.813, 242.750 184.429 C 245.088 182.045, 247 179.469, 247 178.704 C 247 177.940, 244.863 176.231, 242.250 174.907 C 239.637 173.583, 237.350 172.162, 237.167 171.750 C 236.543 170.346, 233 170.993, 233 172.511 M 177.456 182.750 C 178.498 188.511, 187.744 201, 190.967 201 C 191.535 201, 192 201.398, 192 201.883 C 192 202.369, 192.787 202.993, 193.750 203.270 C 194.713 203.547, 196.287 204.097, 197.250 204.494 C 199.773 205.532, 199.418 203.975, 195.935 198.716 C 192.632 193.729, 178.928 179, 177.591 179 C 177.144 179, 177.083 180.688, 177.456 182.750 M 238.698 193.100 C 233.364 198.655, 229 203.605, 229 204.100 C 229 204.595, 230.125 205, 231.500 205 C 232.875 205, 234 204.550, 234 204 C 234 203.450, 234.639 203, 235.421 203 C 237.675 203, 245.857 194.215, 248.547 188.907 C 251.384 183.309, 251.444 183, 249.698 183 C 248.982 183, 244.032 187.545, 238.698 193.100 M 44.031 200.462 C 41.748 203.213, 43.076 235.028, 46.078 249.500 C 46.648 252.250, 47.334 255.559, 47.602 256.854 C 48.033 258.933, 48.495 259.138, 51.545 258.604 C 53.445 258.272, 56.688 257.747, 58.750 257.438 C 60.813 257.129, 63.400 256.489, 64.500 256.016 C 65.600 255.543, 67.625 254.900, 69 254.587 C 74.537 253.326, 74.552 253.217, 71.083 239.365 C 69.316 232.307, 67.380 221.350, 66.782 215.016 C 66.184 208.682, 65.306 202.995, 64.831 202.378 C 64.355 201.760, 60.487 201.029, 56.233 200.754 C 51.980 200.478, 47.785 199.950, 46.910 199.581 C 45.986 199.190, 44.781 199.559, 44.031 200.462 M 207.441 200.834 C 202.464 202.445, 199.676 205.930, 198.396 212.139 C 196.909 219.354, 197.294 220.782, 200.835 221.192 C 203.111 221.455, 203.544 222.033, 203.804 225.151 C 204.055 228.157, 204.654 229.028, 207.191 230.079 C 210.723 231.542, 220.026 230.116, 222.394 227.749 C 227.528 222.615, 229.194 210.804, 225.483 205.843 C 224.393 204.385, 222.679 202.674, 221.677 202.041 C 219.501 200.669, 210.347 199.893, 207.441 200.834 M 92.355 216.500 C 92.352 221.450, 92.521 223.601, 92.731 221.280 C 92.940 218.959, 92.943 214.909, 92.736 212.280 C 92.530 209.651, 92.358 211.550, 92.355 216.500 M 204.902 232.332 C 202.550 234.055, 200.331 238.832, 198.037 247.108 C 195.385 256.677, 195.408 260.149, 198.134 261.852 C 200.708 263.459, 201.667 262.401, 202.530 257 C 202.837 255.075, 203.487 251.925, 203.974 250 C 205.389 244.412, 207.362 232.028, 206.910 231.576 C 206.683 231.349, 205.779 231.689, 204.902 232.332 M 219.444 233.091 C 219.102 233.643, 219.275 236.211, 219.828 238.797 C 220.380 241.384, 221.341 246.875, 221.962 251 C 223.612 261.950, 223.906 263, 225.320 263 C 227.974 263, 232.077 260.424, 232.591 258.434 C 233.282 255.759, 229.620 245.224, 225.629 238.407 C 222.426 232.934, 220.541 231.315, 219.444 233.091 M 209.594 238.792 C 207.913 242.519, 206.525 249.373, 205.348 259.750 L 204.752 265 212.317 265 C 216.478 265, 220.123 264.611, 220.417 264.135 C 221.131 262.979, 218.014 245.347, 215.840 238.250 C 214.465 233.758, 211.758 233.993, 209.594 238.792 M 66.530 257.951 C 66.174 258.528, 64.810 259, 63.500 259 C 62.190 259, 60.840 259.450, 60.500 260 C 60.160 260.550, 58.810 261, 57.500 261 C 56.190 261, 54.840 261.450, 54.500 262 C 54.160 262.550, 52.956 263, 51.824 263 C 49.602 263, 49.603 263.012, 52.107 272 C 53.372 276.537, 66.104 303.077, 68.084 305.302 C 68.671 305.961, 70.141 308.300, 71.352 310.500 C 73.492 314.387, 77.444 316.374, 78.887 314.289 C 79.224 313.802, 81.075 312.322, 83 310.999 C 84.925 309.677, 87.175 307.877, 88 307 C 88.825 306.123, 91.075 304.314, 93 302.980 C 94.925 301.646, 97.372 299.755, 98.439 298.777 C 99.505 297.800, 100.694 297, 101.082 297 C 103.071 297, 102.883 293.445, 100.790 291.487 C 99.530 290.309, 96.925 287.393, 95 285.008 C 93.075 282.623, 91.025 280.182, 90.444 279.585 C 89.864 278.988, 88.289 276.478, 86.944 274.006 C 85.600 271.534, 84.125 269.059, 83.666 268.506 C 83.207 267.953, 81.632 265.250, 80.166 262.500 C 77.544 257.583, 77.414 257.495, 72.339 257.201 C 69.482 257.035, 66.889 257.370, 66.530 257.951 M 349.032 261.922 C 347.934 264.572, 342.251 274.045, 340.285 276.500 C 339.845 277.050, 338.622 278.850, 337.568 280.500 C 336.513 282.150, 332.764 286.395, 329.235 289.933 L 322.819 296.366 326.159 299.300 C 331.968 304.401, 343.720 313, 344.882 313 C 345.497 313, 346 313.450, 346 314 C 346 315.423, 349.912 315.240, 351.346 313.750 C 352.007 313.063, 353.988 310.250, 355.748 307.500 C 357.508 304.750, 359.406 301.960, 359.966 301.300 C 361.763 299.184, 373 275.824, 373 274.204 C 373 273.345, 373.530 271.177, 374.177 269.387 C 375.642 265.335, 374.092 263, 369.937 263 C 368.386 263, 366.840 262.550, 366.500 262 C 366.160 261.450, 364.360 261, 362.500 261 C 360.640 261, 358.840 260.550, 358.500 260 C 358.160 259.450, 356.163 259, 354.062 259 C 350.784 259, 350.071 259.414, 349.032 261.922 M 228.043 265.960 C 225.378 268.449, 224.885 269.527, 225.387 271.759 C 225.726 273.266, 226.431 276.750, 226.955 279.500 C 228.926 289.861, 230.887 298.221, 231.487 298.821 C 231.829 299.162, 232.422 299.005, 232.804 298.471 C 233.674 297.258, 238.914 294.063, 241.250 293.322 C 242.213 293.016, 243 292.369, 243 291.883 C 243 291.398, 243.810 291, 244.800 291 C 248.494 291, 248.886 289.050, 246.176 284.167 C 244.752 281.600, 243.117 279.017, 242.543 278.426 C 241.969 277.835, 240.437 274.910, 239.137 271.926 C 237.837 268.942, 236.441 265.825, 236.035 265 C 234.741 262.373, 231.461 262.767, 228.043 265.960 M 191.068 266.904 C 189.931 268.502, 189 270.429, 189 271.188 C 189 271.947, 187.424 275.014, 185.498 278.004 C 183.571 280.994, 181.741 284.241, 181.430 285.220 C 181.119 286.199, 180.446 287, 179.933 287 C 179.420 287, 179 287.642, 179 288.426 C 179 289.211, 181.588 291.107, 184.750 292.640 C 187.912 294.172, 190.650 295.781, 190.833 296.213 C 191.017 296.646, 191.968 297, 192.947 297 C 194.338 297, 194.985 295.634, 195.907 290.750 C 196.557 287.313, 197.743 281.511, 198.544 277.857 C 200.662 268.192, 200.485 266.135, 197.435 264.975 C 193.743 263.572, 193.358 263.688, 191.068 266.904 M 206 268.264 C 204.625 268.885, 203.418 269.424, 203.317 269.462 C 203.082 269.552, 199.303 289.242, 198.501 294.563 L 197.888 298.625 212.444 298.625 C 228.908 298.625, 227.838 299.324, 225.930 289.826 C 222.823 274.352, 221.627 269.383, 220.737 268.250 C 219.513 266.691, 209.462 266.701, 206 268.264 M 172.884 295.282 C 167.887 299.519, 165.975 301, 165.500 301 C 164.157 301, 156.104 308.673, 153.382 312.547 C 150.418 316.766, 147 323.641, 147 325.384 C 147 326.501, 148.838 326.965, 154.750 327.342 C 164.497 327.963, 170 328.962, 170 330.109 C 170 330.599, 170.900 331, 172 331 C 173.100 331, 174 331.450, 174 332 C 174 332.550, 174.590 333, 175.311 333 C 176.033 333, 177.589 333.900, 178.770 335 C 179.950 336.100, 181.220 337, 181.591 337 C 181.962 337, 183.131 337.998, 184.189 339.218 C 185.808 341.085, 186.260 341.203, 187.042 339.968 C 187.553 339.161, 188.212 336.925, 188.508 335 C 188.803 333.075, 189.516 328.350, 190.092 324.500 C 190.668 320.650, 191.536 315.925, 192.020 314 C 193.792 306.955, 194.075 301.930, 192.770 300.693 C 192.072 300.030, 189.250 298.429, 186.500 297.135 C 183.750 295.840, 180.719 294.380, 179.764 293.891 C 177.161 292.556, 175.766 292.838, 172.884 295.282 M 245 294 C 245 294.550, 244.543 295, 243.985 295 C 241.915 295, 232 302.339, 232 303.870 C 232 305.856, 236.847 331.017, 238.334 336.750 C 239.598 341.622, 240.202 341.859, 243.420 338.750 C 247.623 334.689, 250 333, 251.511 333 C 252.330 333, 253 332.660, 253 332.244 C 253 330.482, 270.747 325, 276.449 325 C 278.267 325, 278.974 324.586, 278.584 323.750 C 278.263 323.063, 277.724 321.712, 277.384 320.750 C 277.045 319.788, 276.424 319, 276.005 319 C 275.586 319, 274.683 317.650, 274 316 C 273.317 314.350, 272.392 313, 271.946 313 C 271.500 313, 270.826 312.026, 270.448 310.836 C 269.676 308.405, 260.169 298.561, 255.346 295.199 C 252.130 292.957, 245 292.131, 245 294 M 103 300 C 103 300.550, 102.410 301, 101.689 301 C 100.967 301, 99.411 301.900, 98.230 303 C 97.050 304.100, 95.808 305, 95.470 305 C 95.133 305, 94.286 305.563, 93.587 306.250 C 92.888 306.938, 90.835 308.625, 89.025 310 C 87.215 311.375, 84.556 313.512, 83.117 314.749 C 81.677 315.986, 80.162 316.998, 79.750 316.999 C 77.697 317.002, 79.525 321.069, 83.764 325.929 C 92.216 335.619, 98.767 341.846, 106.980 348 C 108.815 349.375, 110.888 351.063, 111.587 351.750 C 112.286 352.438, 113.174 353, 113.561 353 C 113.949 353, 114.993 353.819, 115.883 354.819 C 119.789 359.213, 122.789 358.177, 126.405 351.184 C 128.052 347.999, 132.258 341.364, 133.851 339.437 C 134.334 338.852, 135.311 337.287, 136.023 335.958 C 136.734 334.629, 137.957 332.900, 138.740 332.117 C 139.732 331.125, 139.963 329.616, 139.501 327.151 C 138.259 320.531, 131.038 309, 128.134 309 C 127.510 309, 127 308.634, 127 308.187 C 127 307.739, 125.425 306.755, 123.500 306 C 121.575 305.245, 120 304.261, 120 303.813 C 120 303.366, 119.127 303, 118.059 303 C 116.991 303, 115.840 302.550, 115.500 302 C 115.160 301.450, 114.009 301, 112.941 301 C 111.873 301, 111 300.550, 111 300 C 111 299.450, 109.200 299, 107 299 C 104.800 299, 103 299.450, 103 300 M 316.250 300.360 C 315.012 300.973, 314 301.818, 314 302.237 C 314 302.657, 313.339 303, 312.530 303 C 311.722 303, 309.458 303.900, 307.500 305 C 305.542 306.100, 303.278 307, 302.470 307 C 301.661 307, 301 307.450, 301 308 C 301 308.550, 300.244 309, 299.321 309 C 295.884 309, 288.112 319.987, 286.429 327.227 C 285.938 329.338, 286.475 330.812, 288.811 333.761 C 290.470 335.856, 292.624 339.241, 293.599 341.285 C 294.573 343.328, 295.669 345, 296.033 345 C 296.398 345, 297.508 346.800, 298.500 349 C 299.492 351.200, 300.655 353, 301.084 353 C 301.514 353, 302.151 353.900, 302.500 355 C 302.860 356.134, 304.013 357, 305.163 357 C 307.423 357, 313.530 353.006, 318.540 348.250 C 319.265 347.563, 320.118 347, 320.437 347 C 322.067 347, 343.712 325.517, 346.291 321.340 C 347.280 319.738, 346.083 317, 344.393 317 C 343.627 317, 343 316.647, 343 316.216 C 343 315.784, 341.666 314.643, 340.036 313.681 C 338.406 312.718, 336.494 311.368, 335.786 310.682 C 335.079 309.996, 332.925 308.336, 331 306.994 C 329.075 305.652, 326.628 303.755, 325.561 302.777 C 324.495 301.800, 323.033 301, 322.311 301 C 321.590 301, 321 300.550, 321 300 C 321 298.761, 319.203 298.897, 316.250 300.360 M 203.500 302 C 203.160 302.550, 202.002 303, 200.926 303 C 198.535 303, 195.009 308.462, 195.004 312.174 C 195.002 313.644, 194.562 317.019, 194.027 319.674 C 192.311 328.188, 190 341.010, 190 342.020 C 190 342.559, 190.675 343, 191.500 343 C 192.325 343, 193 342.601, 193 342.113 C 193 341.626, 194.463 340.931, 196.250 340.569 C 210.442 337.695, 222.618 337.902, 229.438 341.134 C 233.083 342.861, 236 343.523, 236 342.622 C 236 342.414, 234.878 336.677, 233.507 329.872 C 228.654 305.782, 227.763 303, 224.899 303 C 223.919 303, 222.840 302.550, 222.500 302 C 222.160 301.450, 217.885 301, 213 301 C 208.115 301, 203.840 301.450, 203.500 302 M 136.399 310.403 C 135.835 311.873, 138.680 318.082, 141.485 321.500 C 142.660 322.933, 143.275 323.140, 143.652 322.232 C 143.942 321.535, 144.813 320.329, 145.589 319.554 C 146.365 318.778, 147 317.436, 147 316.571 C 147 315.707, 147.378 315, 147.839 315 C 148.566 315, 151 310.729, 151 309.453 C 151 309.204, 147.836 309, 143.969 309 C 138.857 309, 136.790 309.383, 136.399 310.403 M 274.043 309.750 C 274.067 310.163, 275.189 312.300, 276.537 314.500 C 277.885 316.700, 279.512 319.512, 280.154 320.750 C 282.098 324.498, 284.369 323.438, 287.330 317.399 C 290.932 310.056, 290.121 309, 280.878 309 C 277.095 309, 274.020 309.337, 274.043 309.750 M 142.971 331.123 C 142.162 332.290, 140.996 333.774, 140.380 334.421 C 139.763 335.068, 138.521 337.026, 137.618 338.771 C 136.109 341.690, 132.091 348.102, 130.264 350.506 C 129.844 351.059, 128.458 353.423, 127.183 355.760 C 125.275 359.260, 125.099 360.232, 126.183 361.269 C 127.423 362.456, 143.153 370.364, 147.500 371.986 C 148.600 372.397, 150.625 373.180, 152 373.728 C 156.526 375.529, 161.614 377, 163.321 377 C 164.244 377, 165 377.450, 165 378 C 165 378.550, 166.323 379, 167.941 379 C 169.559 379, 171.160 379.450, 171.500 380 C 171.840 380.550, 174.116 381, 176.559 381 L 181 381 181 376.943 C 181 374.711, 181.413 370.999, 181.918 368.693 C 183.165 362.996, 184.818 354.290, 185.509 349.783 C 186.030 346.383, 185.695 345.688, 181.587 341.638 C 179.116 339.202, 175.724 336.603, 174.048 335.861 C 172.371 335.119, 171 334.172, 171 333.756 C 171 333.340, 170.190 333, 169.200 333 C 168.210 333, 166.973 332.613, 166.450 332.141 C 165.340 331.138, 152.632 329, 147.778 329 C 145.506 329, 143.972 329.677, 142.971 331.123 M 265.500 330 C 265.160 330.550, 263.826 331, 262.535 331 C 258.924 331, 252.245 334.969, 246.345 340.621 C 240.258 346.453, 239.968 347.857, 242.500 359.250 C 247.716 382.723, 247.083 381, 250.500 381 C 251.810 381, 253.160 380.550, 253.500 380 C 253.840 379.450, 255.415 379, 257 379 C 258.585 379, 260.160 378.550, 260.500 378 C 260.840 377.450, 262.104 376.993, 263.309 376.985 C 265.701 376.969, 272.551 374.783, 273.648 373.685 C 274.025 373.308, 275.158 373, 276.167 373 C 277.175 373, 278 372.550, 278 372 C 278 371.450, 278.681 371, 279.514 371 C 280.346 371, 281.809 370.603, 282.764 370.117 C 284.445 369.261, 285.876 368.649, 292.750 365.840 C 294.538 365.109, 296 364.172, 296 363.756 C 296 363.340, 296.620 363, 297.378 363 C 298.135 363, 299.332 362.305, 300.037 361.456 C 301.100 360.175, 300.920 359.193, 298.984 355.706 C 297.700 353.393, 296.357 351.275, 296 351 C 295.643 350.725, 294.259 348.475, 292.925 346 C 291.591 343.525, 289.938 340.905, 289.250 340.179 C 288.563 339.452, 288 338.508, 288 338.082 C 288 337.655, 287.114 336.225, 286.030 334.903 C 281.328 329.165, 280.973 329, 273.384 329 C 269.388 329, 265.840 329.450, 265.500 330 M 202 342.188 C 200.625 342.766, 198.375 343.689, 197 344.237 C 190.545 346.813, 189.505 347.825, 188.340 352.674 C 186.788 359.137, 183 379.379, 183 381.214 C 183 383.763, 197.383 385.261, 216 384.653 C 235.775 384.008, 242.697 383.232, 243.327 381.590 C 243.586 380.915, 243.365 378.369, 242.836 375.932 C 242.307 373.494, 241.481 369.475, 240.999 367 C 237.452 348.781, 237.272 348.409, 230.371 345.110 C 227.692 343.829, 224.719 342.380, 223.764 341.891 C 221.382 340.669, 205.079 340.892, 202 342.188" stroke="none" fill="#bd0507" fill-rule="evenodd"/></svg>